{
  "is_loop": false,
  "release_time": 0.1,

  "controlls": {},
  "dont_change_controlls": true,

  "events": [{
    "type": "note",
    "pitch": 64,
    "velocity": 57,
    "time": 0,
    "duration": 0.034
  }, {
    "type": "note",
    "pitch": 62,
    "velocity": 57,
    "time": 0.036,
    "duration": 0.034
  }, {
    "type": "note",
    "pitch": 60,
    "velocity": 57,
    "time": 0.072,
    "duration": 0.035
  }, {
    "type": "note",
    "pitch": 58,
    "velocity": 57,
    "time": 0.109,
    "duration": 0.035
  }, {
    "type": "note",
    "pitch": 56,
    "velocity": 57,
    "time": 0.146,
    "duration": 0.035
  }, {
    "type": "note",
    "pitch": 54,
    "velocity": 57,
    "time": 0.183,
    "duration": 0.033
  }, {
    "type": "note",
    "pitch": 52,
    "velocity": 57,
    "time": 0.219,
    "duration": 0.033
  }, {
    "type": "note",
    "pitch": 50,
    "velocity": 57,
    "time": 0.254,
    "duration": 0.034
  }, {
    "type": "note",
    "pitch": 48,
    "velocity": 57,
    "time": 0.29,
    "duration": 0.034
  }, {
    "type": "note",
    "pitch": 46,
    "velocity": 57,
    "time": 0.326,
    "duration": 0.033
  }, {
    "type": "note",
    "pitch": 44,
    "velocity": 57,
    "time": 0.361,
    "duration": 0.033
  }, {
    "type": "note",
    "pitch": 42,
    "velocity": 57,
    "time": 0.396,
    "duration": 0.034
  }, {
    "type": "note",
    "pitch": 40,
    "velocity": 57,
    "time": 0.432,
    "duration": 0.034
  }, {
    "type": "note",
    "pitch": 38,
    "velocity": 57,
    "time": 0.468,
    "duration": 0.034
  }, {
    "type": "note",
    "pitch": 36,
    "velocity": 57,
    "time": 0.504,
    "duration": 0.033
  }, {
    "type": "note",
    "pitch": 34,
    "velocity": 57,
    "time": 0.539,
    "duration": 0.034
  }, {
    "type": "note",
    "pitch": 32,
    "velocity": 57,
    "time": 0.575,
    "duration": 0.033
  }, {
    "type": "note",
    "pitch": 30,
    "velocity": 57,
    "time": 0.61,
    "duration": 0.033
  }, {
    "type": "note",
    "pitch": 28,
    "velocity": 57,
    "time": 0.645,
    "duration": 0.033
  }, {
    "type": "note",
    "pitch": 26,
    "velocity": 57,
    "time": 0.68,
    "duration": 0.034
  }, {
    "type": "note",
    "pitch": 24,
    "velocity": 57,
    "time": 0.717,
    "duration": 0.033
  }, {
    "type": "note",
    "pitch": 22,
    "velocity": 57,
    "time": 0.752,
    "duration": 0.033
  }, {
    "type": "note",
    "pitch": 20,
    "velocity": 57,
    "time": 0.787,
    "duration": 0.033
  }, {
    "type": "note",
    "pitch": 18,
    "velocity": 57,
    "time": 0.822,
    "duration": 0.033
  }]
}
